# xmcd
# 
# Track frame offsets:
#     150
#     11092
#     20559
#     36515
#     50211
#     63693
#     82306
#     94838
#     112022
#     129401
#     144769
# 
# Disc length: 2088
# 
# Revision: 2
# Processed by: cddbd v1.5.2PL0 Copyright (c) Steve Scherf et al.
# Submitted via: fre:ac v1.0.31
# 
DISCID=a208260b
DTITLE=Mac DeMarco - Salad Days
DYEAR=2014
DGENRE=Rock/Pop
TTITLE0=Salad Days■f
TTITLE1=Blue Boy■f
TTITLE2=Brother■f
TTITLE3=Let Her Go■f
TTITLE4=Goodbye Weekend■f
TTITLE5=Let My Baby Stay■f
TTITLE6=Passing Out Pieces■f
TTITLE7=Treat Her Better■f
TTITLE8=Chamber Of Reflection■f
TTITLE9=Go Easy■f
TTITLE10=Jonny's Odyssey■f
EXTD=YEAR: 2014
EXTT0=
EXTT1=
EXTT2=
EXTT3=
EXTT4=
EXTT5=
EXTT6=
EXTT7=
EXTT8=
EXTT9=
EXTT10=
PLAYORDER=
